<?xml version="1.0" encoding="UTF-8"?>
<!DOCTYPE svg PUBLIC "-//W3C//DTD SVG 1.1//EN" "http://www.w3.org/Graphics/SVG/1.1/DTD/svg11.dtd">
<svg xmlns="http://www.w3.org/2000/svg" version="1.1" width="64px" height="64px" style="shape-rendering:geometricPrecision; text-rendering:geometricPrecision; image-rendering:optimizeQuality; fill-rule:evenodd; clip-rule:evenodd" xmlns:xlink="http://www.w3.org/1999/xlink">
<g><path style="opacity:0.977" fill="#ff4255" d="M 20.5,-0.5 C 24.1667,-0.5 27.8333,-0.5 31.5,-0.5C 31.5,4.16667 31.5,8.83333 31.5,13.5C 29.6908,21.7755 28.8575,30.4421 29,39.5C 23.9925,37.2423 20.8258,38.7423 19.5,44C 20.5422,49.0232 23.5422,50.6899 28.5,49C 29.3734,47.955 30.3734,47.1217 31.5,46.5C 31.5,52.1667 31.5,57.8333 31.5,63.5C 27.8333,63.5 24.1667,63.5 20.5,63.5C 9.16667,60.8333 2.16667,53.8333 -0.5,42.5C -0.5,35.1667 -0.5,27.8333 -0.5,20.5C 2.16667,9.16667 9.16667,2.16667 20.5,-0.5 Z"/></g>
<g><path style="opacity:1" fill="#ef0461" d="M 31.5,-0.5 C 35.1667,-0.5 38.8333,-0.5 42.5,-0.5C 53.8333,2.16667 60.8333,9.16667 63.5,20.5C 63.5,27.8333 63.5,35.1667 63.5,42.5C 60.8333,53.8333 53.8333,60.8333 42.5,63.5C 38.8333,63.5 35.1667,63.5 31.5,63.5C 31.5,57.8333 31.5,52.1667 31.5,46.5C 31.5,42.5 31.5,38.5 31.5,34.5C 31.334,29.1563 31.5006,23.8229 32,18.5C 35.6065,21.7646 38.7732,25.2646 41.5,29C 40.307,31.6922 38.307,33.5255 35.5,34.5C 40.0943,35.7667 42.761,33.9334 43.5,29C 43.3749,27.3732 42.8749,25.8732 42,24.5C 37.9723,21.637 34.4723,18.3037 31.5,14.5C 31.5,14.1667 31.5,13.8333 31.5,13.5C 31.5,8.83333 31.5,4.16667 31.5,-0.5 Z"/></g>
<g><path style="opacity:1" fill="#fff9fa" d="M 31.5,13.5 C 31.5,13.8333 31.5,14.1667 31.5,14.5C 30.2264,21.296 30.2264,27.9626 31.5,34.5C 31.5,38.5 31.5,42.5 31.5,46.5C 30.3734,47.1217 29.3734,47.955 28.5,49C 23.5422,50.6899 20.5422,49.0232 19.5,44C 20.8258,38.7423 23.9925,37.2423 29,39.5C 28.8575,30.4421 29.6908,21.7755 31.5,13.5 Z"/></g>
<g><path style="opacity:1" fill="#fed9e2" d="M 31.5,14.5 C 34.4723,18.3037 37.9723,21.637 42,24.5C 42.8749,25.8732 43.3749,27.3732 43.5,29C 42.761,33.9334 40.0943,35.7667 35.5,34.5C 38.307,33.5255 40.307,31.6922 41.5,29C 38.7732,25.2646 35.6065,21.7646 32,18.5C 31.5006,23.8229 31.334,29.1563 31.5,34.5C 30.2264,27.9626 30.2264,21.296 31.5,14.5 Z"/></g>
</svg>
